<?xml version="1.0" encoding="utf-8"?>
<!-- Generator: Adobe Illustrator 20.1.0, SVG Export Plug-In . SVG Version: 6.00 Build 0)  -->
<svg version="1.1" id="Layer_1" xmlns="http://www.w3.org/2000/svg" xmlns:xlink="http://www.w3.org/1999/xlink" x="0px" y="0px"
	 viewBox="0 0 3716 3778" style="enable-background:new 0 0 3716 3778;" xml:space="preserve">
<style type="text/css">
	.st0{fill:#ED1C24;}
</style>
<g id="XMLID_28_">
	<path id="XMLID_49_" class="st0" d="M1793.7,77.2c46.4,0,92.9,0,139.3,0c2.1,0.7,4.1,2,6.2,2.1c18,1.1,36.1,1.6,54,3.2
		c41,3.7,82.1,6.9,122.8,12.3c73,9.8,145.1,24.5,216.3,43.4c107.8,28.6,212.1,66.6,312.8,114.5c97.4,46.3,190,100.7,277.8,163.4
		c103.8,74,198.6,158.3,285,251.9c48.1,52.1,92.9,107.1,134.4,164.7c77.6,107.6,143.1,221.9,195.8,343.7
		c36.5,84.4,66.5,170.9,89.8,259.8c16.7,63.6,30.2,128,39.6,193.1c7.1,49,13.9,98,14.8,147.7c0.2,9.1,1.8,18.2,2.7,27.3
		c0,64.1,0,128.1,0,192.2c-0.8,4-1.9,8-2.2,12c-2,28.1-3.3,56.4-5.9,84.5c-6.8,73.8-19.6,146.7-36.3,219
		c-33.7,146.1-84.9,285.8-153.4,419.2c-39.1,76-83.4,148.8-132.3,218.9c-6.8,9.7-13.7,18.7-26.4,23c-2.9-18.3-5.5-36.4-8.7-54.5
		c-6.9-39.7-12.6-79.6-21.3-118.8c-18.8-85.5-54.1-164.4-98.7-239.4c-47.3-79.6-105.4-150.3-174.7-211.5
		c-62.5-55.2-131.3-101.3-206-138.6c-15.3-7.7-31-14.7-46.2-22.6c-10.8-5.6-12.9-11.7-8.5-22.9c15.3-39.4,27-79.8,36.5-121
		c11-47.5,18.1-95.6,19.7-144.2c1.4-42.1-0.8-84.4-1.6-126.5c-0.1-8.3,0.2-16.8-1.2-25c-4.9-30.1-9.5-60.4-15.9-90.2
		c-22-101.9-60.4-197.4-114.6-286.5c-45.2-74.2-100.9-139.6-165.4-197.6c-58.9-53-123.5-97.8-194-133.9
		c-75.4-38.7-154.7-67-237.8-84c-55-11.3-110.6-18.2-166.8-17.1c-37.9,0.8-75.7,4.3-113.5,7.7c-26.2,2.4-52.5,5.6-78.4,10.2
		c-60.5,10.8-118.3,30.9-174.7,54.9c-74.2,31.5-147.8,64.5-221.9,96.2c-173.8,74.3-347.9,148.2-521.8,222.4
		c-19.9,8.5-39.4,18-60.6,27.6c71.7,166.4,142.9,331.7,214.3,497.4c10.7-5.1,19.7-9.9,29.1-13.9c72.1-30.7,144.3-61,216.2-91.8
		c148.6-63.7,297.2-127.7,445.8-191.5c40-17.2,79.8-35,120.4-50.8c42.1-16.4,86.2-25,131.6-25.3c48.3-0.3,94.8,9.3,139.9,25.9
		c47.8,17.6,89.4,45.1,124.8,81.4c32,32.8,56.7,71,75.4,112.7c19.4,43.2,29.5,88.6,30.3,136c0.6,35.9-4.5,71.1-13.6,105.7
		c-24.3,91.7-74.3,164.9-155.8,215.1c-37.2,22.9-77.4,40.1-117.4,57.2c-128.2,54.9-256.8,108.9-385,163.9
		c-107.8,46.2-215.2,93.1-322.7,139.7c-9.2,4-18.3,8.3-27.3,12.4c8.4,27.5,207.4,487.9,214.7,496.4c4-1.4,8.4-2.6,12.6-4.3
		c41.8-17.7,83.7-35.3,125.4-53.2c149-64,297.9-128.2,447-192.2c67.7-29.1,135.4-58.1,203.4-86.4c40.4-16.8,82.1-29.4,126-32.3
		c36.2-2.4,72.3-1.2,108,6.3c33.2,7,65.2,17.5,95.3,33.6c40.2,21.5,74.4,50.1,104.7,83.9c52.1,58.3,82.3,126.3,88.8,204
		c4.8,58.4-3.1,115.6-22.9,170.9c-19.8,55.4-52,102.2-97,140.2c-26.4,22.3-55.9,40.1-87.1,54.4c-86.9,39.6-174,78.6-261.6,116.5
		c-178.2,77.1-356.7,153.4-535.1,230.1c-12.7,5.5-24.9,12.2-37.3,18.3c-12.1,0-24.1,0-36.2,0c-2.5-0.8-5-2.1-7.6-2.4
		c-23-2.4-46.1-3.8-69-6.9c-82.6-11.2-164.4-26.7-245-48.5c-109.4-29.7-215.3-68.8-317.4-118.1c-87.4-42.2-170.9-91.3-250.6-146.8
		c-76.2-53.1-148-111.6-215-175.9c-31.5-30.1-61.4-61.9-91.2-93.8c-57.7-61.7-109.5-128.3-157.2-198
		c-65.9-96.3-122.1-198-168.3-305.2c-51.7-120-90.4-244-115.1-372.3c-12.1-62.8-21.1-125.9-26.6-189.5c-2.4-27.1-3.8-54.4-5.9-81.5
		c-0.2-2.6-1.7-5.1-2.6-7.7c0-48.3,0-96.6,0-144.9c0.9-2,2.4-3.9,2.6-6c1.9-23.5,3.8-46.9,5.4-70.4c3.1-47.1,9.5-93.8,16.7-140.5
		c13.5-87.1,33.9-172.6,60.3-256.6c44.3-140.8,105-274.2,181.9-400.2c88-144.1,193.8-273.5,317.6-388.3
		c54.8-50.8,112.4-98.1,172.8-141.9c93-67.4,191.6-125.4,295.5-174.1c78.1-36.6,158.6-67.4,241.2-92.5
		c66.1-20.1,133-36.8,201.1-48.4c40.6-6.9,81.2-13.4,122.1-18.3c34.4-4.2,69.1-5.9,103.6-8.7C1769.1,79.5,1781.4,78.3,1793.7,77.2z"
		/>
</g>
</svg>
