<svg id="Layer_1" data-name="Layer 1" xmlns="http://www.w3.org/2000/svg" viewBox="0 0 142.9 163.58"><title>Untitled-2</title><path d="M682.76,514.08c-3.83-19.23-23.78-33-43-26.22-18.35,6.47-27.12,29.09-15,45.38,11.58,15.6,36.36,13.71,45.56-3.29,5.23-9.66,6.13-21.73,6.16-32.51A158.19,158.19,0,0,0,672,461.37c-6.26-27-16.91-53.17-29.06-78-3.4-6.93-13.75-.86-10.36,6.06a411.43,411.43,0,0,1,21.08,51.45c5.86,17.66,10.59,36,10.82,54.69.15,12.52-.45,37.09-18.31,36.47-14.35-.5-19.81-18.91-9.86-28.44,13-12.49,31.76-2.06,34.89,13.67,1.51,7.57,13.08,4.36,11.57-3.19Z" transform="translate(-619.19 -380.32)"/><path d="M706.41,489.79c-14.26,4.66-40.34,18.38-30.87,37.34,7.58,15.18,29.48,17.72,42.42,8.49,6.23-4.45.25-14.86-6.06-10.36-7.28,5.19-20.11,5.8-25.33-2.93-5.83-9.74,16.63-18.88,23-21,7.31-2.39,4.18-14-3.19-11.57Z" transform="translate(-619.19 -380.32)"/><path d="M723.71,504.54c.09,8.72,2.43,18.35,10.18,23.43,7.29,4.79,17.49,4.25,22.94-3s5.17-18.49,5.26-27a134.36,134.36,0,0,0-4-33.57c-1.85-7.49-13.43-4.32-11.57,3.19a119.7,119.7,0,0,1,2.91,42.35c-.49,4.27-1.26,10.81-7.16,8.89-5.68-1.84-6.45-9.26-6.5-14.27-.08-7.72-12.08-7.74-12,0Z" transform="translate(-619.19 -380.32)"/><path d="M754.91,449.18c7.72,0,7.73-12,0-12s-7.73,12,0,12Z" transform="translate(-619.19 -380.32)"/></svg>